PathFileType  4	(X/Y/Z) C:\Users\antoi\Documents\MyRepositories\mobilecap\ResultsAnalysis
DataRate	CameraRate	NumFrames	NumMarkers	Units	OrigDataRate	OrigDataStartFrame	OrigNumFrames
100.0	100.0	4	51	mm	100.0	33	128
Frame#	Time	r_knee			r_shank_antsup			r_ankle			r_calc			r_5meta			r_toe			L_knee			L_shank_antsup			L_ankle			L_calc			L_5meta			L_toe			r_sh2			r_sh3			r_sh4			L_sh2			L_sh3			r_thigh1			r_thigh2			r_thigh3			r_thigh4			r_thigh5			L_thigh1			L_thigh2			L_thigh3			L_thigh4			r.ASIS			r.PSIS			L.ASIS			L.PSIS			C7			R_Shoulder			L_Shoulder			R_Sternum			L_Sternum			R_humerus			R_elbow_med			R_elbow_lat			R_forearm			R_wrist_radius			R_wrist_ulna			L_humerus			L_elbow_med			L_elbow_lat			L_forearm			L_wrist_radius			L_wrist_ulna			R_HJC			L_HJC			R_HJC_reg			L_HJC_reg			
		X1	Y1	Z1	X2	Y2	Z2	X3	Y3	Z3	X4	Y4	Z4	X5	Y5	Z5	X6	Y6	Z6	X7	Y7	Z7	X8	Y8	Z8	X9	Y9	Z9	X10	Y10	Z10	X11	Y11	Z11	X12	Y12	Z12	X13	Y13	Z13	X14	Y14	Z14	X15	Y15	Z15	X16	Y16	Z16	X17	Y17	Z17	X18	Y18	Z18	X19	Y19	Z19	X20	Y20	Z20	X21	Y21	Z21	X22	Y22	Z22	X23	Y23	Z23	X24	Y24	Z24	X25	Y25	Z25	X26	Y26	Z26	X27	Y27	Z27	X28	Y28	Z28	X29	Y29	Z29	X30	Y30	Z30	X31	Y31	Z31	X32	Y32	Z32	X33	Y33	Z33	X34	Y34	Z34	X35	Y35	Z35	X36	Y36	Z36	X37	Y37	Z37	X38	Y38	Z38	X39	Y39	Z39	X40	Y40	Z40	X41	Y41	Z41	X42	Y42	Z42	X43	Y43	Z43	X44	Y44	Z44	X45	Y45	Z45	X46	Y46	Z46	X47	Y47	Z47	X48	Y48	Z48	X49	Y49	Z49	X50	Y50	Z50	X51	Y51	Z51	

33	0.32000000	262.00258	504.59631	-80.59346	288.03323	430.10472	-96.48662	165.72716	105.97283	-121.06181	96.10193	79.68013	-159.79534	265.26441	41.14113	-91.89417	316.69732	66.52583	-146.87436	491.54399	532.94797	-377.16465	519.63533	438.03054	-383.23858	427.70597	138.79341	-341.14494	361.24718	112.95504	-286.17508	522.40987	58.55167	-375.27976	571.86623	90.59083	-331.00045	246.61729	321.87177	-78.55101	211.15447	454.15128	-71.03626	175.27407	347.36328	-75.85105	432.93982	459.19353	-378.27327	415.88789	338.11984	-378.11761	371.27000	811.41172	-44.02497	354.59624	699.44532	-54.37592	293.60531	685.41431	-29.47813	259.71839	825.60590	-23.96093	242.17606	710.40703	-41.60257	396.72732	782.72596	-418.28834	470.72507	666.67604	-401.11109	307.86829	730.86052	-367.80217	384.68641	612.13247	-362.68692	402.89799	982.24682	-88.72943	210.29626	1024.72875	-165.81137	397.88671	963.46795	-339.46032	199.04117	1022.03275	-265.62346	225.12944	1436.42768	-238.54351	351.82706	1408.15521	-78.37432	270.79550	1387.35005	-424.29329	364.27639	1400.02654	-239.36873	362.23014	1398.69689	-280.61390	389.44842	1286.79120	-8.79351	355.68777	1064.35886	-1.32604	393.72321	1095.32996	56.20127	516.71501	1050.06987	-4.18106	621.09464	981.68308	-61.78672	620.35650	961.89165	-31.88711	262.13180	1276.00728	-488.19418	188.80440	1049.51082	-436.36126	200.48836	1073.07134	-511.75589	284.85857	989.27388	-515.80942	357.61897	848.51641	-522.24165	332.26804	839.91288	-542.73440	321.21774	904.69072	-107.35109	315.77079	893.81967	-313.46344	333.80166	905.47218	-113.87191	315.21013	901.01850	-278.74546	
34	0.33000000	267.46047	504.05659	-81.29898	292.69080	429.25892	-97.54012	166.48821	106.49891	-122.04435	96.62313	80.47255	-160.57738	265.37783	41.37864	-92.15290	317.02812	66.25429	-147.19529	503.36862	531.28748	-376.04480	536.94731	438.89064	-382.70717	465.25143	132.95365	-344.79170	400.69756	102.19759	-290.38176	565.23606	59.56830	-379.20870	612.44741	94.24875	-334.36234	250.30237	321.47365	-79.45743	216.19483	454.10050	-71.69298	179.13939	347.71718	-76.49577	449.18618	453.98680	-377.95192	439.97299	332.22369	-379.70706	381.41286	809.14324	-44.19703	363.08324	697.58197	-55.00672	301.94935	684.29592	-30.06278	270.08638	824.78978	-23.75537	250.85773	709.90176	-42.14910	408.49917	781.15429	-417.59594	482.09226	664.99010	-400.03853	319.29612	729.51386	-367.49429	395.62061	610.55275	-362.40918	414.74758	980.49005	-88.45215	222.20044	1023.10100	-165.57594	409.78905	961.94979	-339.17928	210.89634	1020.33683	-265.36569	236.33216	1434.82211	-239.21930	363.87514	1407.71668	-79.62007	281.17868	1384.93422	-424.88546	375.59024	1398.59864	-240.54949	373.39339	1397.03838	-281.73107	402.90428	1287.22687	-9.61079	371.08860	1064.58183	-0.21833	409.47470	1096.34309	56.68420	532.22932	1052.01400	-4.74264	636.70787	984.44906	-63.01858	636.59721	964.86246	-32.98513	271.75061	1273.46413	-488.32501	197.80618	1047.41493	-435.37345	209.09796	1070.70877	-510.88924	293.30868	986.75483	-515.14098	365.72414	845.86008	-521.54564	340.21833	837.24985	-541.85073	333.08202	902.96784	-107.14964	327.68394	892.24097	-313.27099	345.65617	903.99311	-113.51493	326.98285	899.42682	-278.36093	
35	0.34000000	273.23584	503.38614	-82.09314	297.60309	428.26816	-98.70034	167.23877	107.02417	-123.03052	97.17112	81.31273	-161.37108	265.47525	41.61451	-92.42068	317.35309	66.04089	-147.48981	514.42043	529.09551	-374.98640	553.41576	439.70090	-382.23727	502.41982	128.37334	-348.89765	439.92962	92.76510	-295.22326	607.16910	62.41128	-383.61235	651.91839	99.45139	-338.06788	254.18046	320.98870	-80.42528	221.55583	453.95587	-72.39014	183.25391	347.98717	-77.17787	464.90433	448.78924	-377.50074	463.46881	326.82739	-381.28125	391.70828	806.74691	-44.52010	371.74454	695.62302	-55.79861	310.52152	683.02353	-30.77536	280.64746	823.77041	-23.62202	259.76817	709.20309	-42.77569	419.91346	779.14794	-416.87490	492.83266	662.69153	-398.97805	330.30086	727.93990	-367.07646	405.96914	608.60901	-361.92033	426.75339	978.54318	-88.38355	234.21125	1021.27857	-165.36719	421.84449	960.31390	-339.04282	222.87568	1018.42307	-265.15569	247.58536	1433.00678	-240.04569	375.91187	1407.10316	-80.99380	291.68271	1382.30965	-425.61512	386.97040	1396.96476	-241.82683	384.62576	1395.15813	-282.97067	416.24483	1287.52755	-10.47010	386.34386	1064.69891	0.87957	424.98877	1097.26793	57.17710	547.57716	1053.78831	-5.13624	652.06261	986.91124	-63.96097	652.61716	967.59512	-33.78675	281.58598	1270.70612	-488.58549	207.16185	1045.06306	-434.50975	218.07893	1068.08486	-510.14489	302.13539	984.00310	-514.58211	374.17985	843.01078	-520.94627	348.44520	834.39696	-541.06200	345.14735	901.03918	-107.08922	339.73285	890.51595	-313.22087	357.64790	902.39736	-113.35614	338.93036	897.68251	-278.13208	
36	0.35000000	279.39633	502.59119	-82.92694	302.81931	427.12961	-99.88778	168.00030	107.59210	-123.97296	97.74819	82.25052	-162.12739	265.56715	41.83868	-92.67747	317.67942	65.86519	-147.74820	524.78345	526.44534	-374.07671	569.04984	440.40705	-381.91596	538.73574	125.14745	-353.31201	478.47627	84.80033	-300.52708	647.66654	66.98737	-388.32448	689.83736	106.06745	-341.99743	258.25610	320.42586	-81.39014	227.27074	453.73682	-73.08122	187.63839	348.20229	-77.85810	480.09896	443.68155	-377.08389	486.27436	321.96438	-382.88051	402.15668	804.26666	-44.95583	380.59268	693.60897	-56.69734	319.36365	681.60411	-31.58304	291.39945	822.57084	-23.54565	268.92661	708.32573	-43.44328	431.00361	776.77723	-416.19744	503.02360	659.85473	-398.02940	340.96048	726.22743	-366.56686	415.79475	606.37716	-361.29458	438.90566	976.45056	-88.50110	246.32558	1019.27211	-165.19729	434.07343	958.57987	-339.03621	234.99026	1016.31731	-265.00384	258.87071	1431.00601	-241.03605	387.93325	1406.33313	-82.49865	302.31777	1379.48973	-426.49133	398.42239	1395.14338	-243.19643	395.93249	1393.07504	-284.33863	429.47037	1287.70445	-11.38171	401.42050	1064.73235	1.96603	440.24701	1098.11742	57.68321	562.75348	1055.40815	-5.37017	667.12500	989.06746	-64.61240	668.39175	970.09594	-34.28997	291.63958	1267.74638	-488.97907	216.88760	1042.46987	-433.76627	227.42980	1065.21346	-509.52384	311.33702	981.03115	-514.14764	382.97489	839.97709	-520.45626	356.92057	831.36697	-540.37449	357.41084	898.93808	-107.15776	351.94150	888.66435	-313.30085	369.78478	900.68082	-113.39439	351.08250	895.80622	-278.06713	
